<svg width="2768" height="2753" viewBox="0 0 2768 2753" fill="none" xmlns="http://www.w3.org/2000/svg">
<path d="M2726.74 1175.96C2651.75 685.094 2344.28 82.036 1736.84 18.925C1736.84 18.925 1275.64 -37.173 821.007 47.849C551.179 98.309 314.579 248.518 164.869 464.406C15.157 680.294 -34.852 943.539 25.84 1194.51C65.259 1357.52 91.896 1526.23 84.585 1693.73C71.862 1985.25 79.182 2257.36 362.095 2431.22C614.704 2586.45 932.616 2723.36 1235.91 2747.34C1442.03 2763.63 1673.17 2737.26 1871.83 2683.6C2884.22 2410.12 2801.73 1666.82 2726.74 1175.96Z" fill="#F4F7FA"/>
<path d="M2102.07 2364.37C2049.19 2387.38 1960.17 2426.12 1853.34 2404.78C1659.13 2365.99 1532.14 2153.81 1496.82 1980.07C1466.48 1830.83 1514.13 1676.45 1609.44 1367.68C1699.2 1076.88 1753.79 1005.69 1705.88 915.692C1637.58 787.396 1457.52 802.283 1400.29 640.668C1393.42 621.274 1369.83 554.666 1399.59 496.644C1450.53 397.32 1622.04 392.87 1721.2 412.926C1816.85 432.271 1957.39 497.115 1994.07 615.168C2020.65 700.699 1970.13 741.501 2008.81 808.026C2047.73 874.959 2110.61 853.844 2213.66 930.721C2254.83 961.433 2337.47 1023.08 2359.92 1117.64C2388.95 1239.92 2291.06 1306.53 2335.13 1391.21C2366.97 1452.39 2428.48 1437.61 2478.04 1497.62C2543.29 1576.62 2516.17 1698.49 2492.26 1799.6C2464.1 1918.66 2388.11 2239.88 2102.07 2364.37Z" fill="url(#paint0_linear_8_8)"/>
<path opacity="0.16" d="M1457.88 504.092C1442.5 570.651 1679.25 590.588 1799.21 791.23C1928.28 1007.11 1843.4 1300.49 1804.17 1436.07C1737.24 1667.39 1654.59 1706.05 1652.56 1900.25C1651.76 1977.11 1650.08 2137.23 1768.6 2250C1779.61 2260.48 1904.11 2375.45 2054.21 2347.28C2224.46 2315.34 2298.21 2123.52 2361.75 1958.25C2400.14 1858.38 2476.85 1658.87 2395.52 1589.62C2345.8 1547.28 2248.48 1563.37 2187.56 1597.7C2100.61 1646.7 2075.9 1739.6 2058.03 1732.96C2041.93 1726.97 2046.49 1645.86 2076.9 1561.28C2137.72 1392.12 2239.76 1382.07 2274.26 1244.68C2278.45 1228.02 2309.67 1095.59 2232.26 1006.84C2187.62 955.656 2105.68 917.674 2055.72 944.235C1999.21 974.274 2007.99 1073.9 1988.37 1073.7C1969.61 1073.51 1950.18 982.304 1944.14 889.356C1935.27 752.783 1962.71 726.255 1940.52 654.795C1906.66 545.769 1806.48 490.575 1791.96 482.846C1655.95 410.432 1471.03 447.187 1457.88 504.092Z" fill="white"/>
<path d="M1997.98 2495.06C1958.95 2482.76 1893.25 2462.04 1846 2400.88C1760.09 2289.67 1790.91 2116.95 1852.91 2007.48C1906.16 1913.46 2003.56 1853 2198.37 1732.08C2381.83 1618.2 2444.21 1605.51 2460.47 1535.02C2483.65 1434.53 2380.32 1358.66 2424.94 1245.48C2430.29 1231.9 2448.68 1185.26 2491.63 1168.05C2565.15 1138.6 2659.05 1216.09 2702.79 1273C2744.99 1327.89 2790.03 1428.05 2754.7 1508.33C2729.1 1566.5 2683.05 1564.82 2672.78 1618.45C2662.45 1672.4 2705.95 1690.38 2725.32 1779.52C2733.06 1815.14 2748.59 1886.62 2716.57 1947.7C2675.17 2026.67 2591.75 2016.76 2575.91 2082.61C2564.47 2130.19 2604.28 2150.92 2602.87 2206.13C2601.01 2278.8 2529.75 2331.42 2469.86 2374.41C2399.34 2425.03 2209.08 2561.62 1997.98 2495.06Z" fill="url(#paint1_linear_8_8)"/>
<path opacity="0.16" d="M2519.37 1199.18C2480.14 1227.65 2597.61 1348.58 2568.39 1511.85C2536.96 1687.52 2354.9 1805.06 2270.77 1859.37C2127.22 1952.04 2064.97 1934.25 1973.45 2037.27C1937.23 2078.05 1861.77 2162.99 1872.71 2278.55C1873.72 2289.28 1886.83 2408.81 1980.31 2463.63C2086.33 2525.81 2215.13 2457.46 2326.11 2398.57C2393.17 2362.98 2527.13 2291.89 2515.85 2216.95C2508.95 2171.13 2449.35 2134.42 2400.75 2124.44C2331.38 2110.18 2274.9 2148.4 2268.42 2136.52C2262.59 2125.83 2302.81 2084.52 2358.47 2053.41C2469.8 1991.17 2529.11 2033.31 2611.56 1975.82C2621.55 1968.85 2699.94 1912.49 2699.83 1828.93C2699.76 1780.74 2673.58 1722.25 2634.46 1713.21C2590.22 1702.97 2548.53 1760.4 2538.12 1751.16C2528.17 1742.32 2560.24 1684.44 2600.29 1631.87C2659.14 1554.63 2686.18 1553.2 2707.57 1504.61C2740.22 1430.48 2712.29 1354.28 2708.12 1343.38C2669.02 1241.28 2552.91 1174.84 2519.37 1199.18Z" fill="white"/>
<path d="M865.123 1241.94C897.593 1270.78 949.228 1265.65 980.451 1230.49C1011.68 1195.34 1010.67 1143.46 978.197 1114.62C976.516 1113.13 974.752 1111.78 972.974 1110.47C985.816 1089.85 996.992 1068.61 1006.44 1046.91C1008.59 1047.46 1010.75 1047.99 1012.99 1048.37C1056.73 1055.77 1100.94 1025.39 1111.74 980.524C1122.55 935.657 1095.86 893.29 1052.13 885.896C1049.84 885.511 1047.56 885.287 1045.27 885.104C1046.61 861.816 1046.16 838.606 1043.92 815.672C1046.19 815.037 1048.46 814.361 1050.72 813.524C1093.99 797.496 1118.94 750.006 1106.43 707.454C1093.93 664.901 1048.7 643.401 1005.43 659.428C1003.21 660.25 1001.08 661.205 998.958 662.188C988.704 642.439 976.745 623.492 963.148 605.499C964.871 603.839 966.575 602.147 968.192 600.326C999.417 565.169 1037.94 527.922 1005.02 499.597C928.875 434.072 881.836 460.74 850.61 495.898C848.993 497.72 847.514 499.612 846.069 501.517C826.595 490.142 806.37 480.504 785.548 472.652C786.273 470.433 786.969 468.201 787.525 465.901C798.33 421.036 817.906 400.356 775.23 388.275C682.169 361.932 639.965 394.258 629.158 439.121C628.593 441.467 628.191 443.799 627.826 446.125C604.789 446.615 581.689 448.908 558.721 452.984C558.269 450.738 557.777 448.494 557.125 446.269C544.618 403.717 499.397 382.217 456.12 398.246C412.843 414.275 387.901 461.764 400.408 504.316C401.048 506.496 401.83 508.582 402.636 510.65C382.2 522.598 362.428 536.204 343.472 551.392C341.959 549.78 340.412 548.187 338.729 546.694C306.26 517.857 254.626 522.981 223.401 558.139C192.176 593.297 193.185 645.175 225.655 674.011C227.337 675.506 229.101 676.853 230.879 678.166C218.037 698.783 206.859 720.024 197.41 741.727C195.26 741.171 193.097 740.641 190.859 740.262C147.124 732.869 102.914 763.243 92.106 808.111C81.299 852.977 107.992 895.342 151.723 902.736C154.007 903.122 156.294 903.347 158.576 903.53C157.241 926.819 157.692 950.028 159.925 972.963C157.659 973.598 155.391 974.274 153.129 975.111C109.854 991.139 84.91 1038.63 97.417 1081.18C109.924 1123.74 178.75 1160.03 222.026 1144C224.244 1143.17 202.773 1127.43 204.891 1126.45C215.146 1146.2 227.106 1165.14 240.7 1183.14C238.979 1184.8 237.274 1186.49 235.657 1188.31C204.432 1223.47 205.441 1275.35 237.91 1304.18C270.379 1333.02 322.014 1327.9 353.238 1292.74C354.856 1290.92 356.334 1289.03 357.778 1287.12C377.252 1298.49 397.477 1308.13 418.299 1315.98C417.574 1318.2 416.878 1320.44 416.324 1322.74C405.517 1367.6 432.208 1409.97 475.94 1417.36C519.672 1424.76 563.884 1394.38 574.69 1349.52C575.255 1347.17 575.658 1344.84 576.02 1342.51C599.058 1342.02 622.159 1339.73 645.126 1335.65C645.578 1337.9 646.07 1340.14 646.723 1342.37C659.231 1384.92 704.45 1406.42 747.727 1390.39C791.004 1374.36 815.947 1326.87 803.441 1284.32C802.799 1282.14 802.019 1280.06 801.212 1277.99C821.647 1266.04 841.42 1252.43 860.375 1237.25C861.895 1238.85 863.441 1240.45 865.123 1241.94ZM396.653 1125.45C278.765 1020.75 275.101 832.388 388.471 704.739C501.841 577.088 689.312 558.485 807.201 663.186C925.091 767.887 928.755 956.244 815.386 1083.89C702.015 1211.54 514.543 1230.15 396.653 1125.45Z" fill="url(#paint2_linear_8_8)"/>
<path d="M1013 1048.37C1056.73 1055.76 1100.94 1025.39 1111.75 980.523C1122.55 935.657 1095.86 893.29 1052.13 885.896C1049.84 885.509 1047.56 885.288 1045.27 885.103C1046.61 861.814 1046.16 838.606 1043.93 815.671C1046.19 815.038 1048.46 814.36 1050.72 813.522C1094 797.494 1155.46 747.463 1138.65 706.419C1106.75 628.519 1048.71 643.4 1005.43 659.427C1003.21 660.249 1001.08 661.203 998.961 662.185C988.705 642.436 976.746 623.491 963.15 605.496C964.873 603.837 966.576 602.146 968.194 600.325C985.188 581.191 992.558 557.114 990.58 534.484C938.972 587.378 887.771 640.658 837.106 694.441C924.752 802.384 918.216 968.107 815.384 1083.89C728.244 1182.01 597.349 1215.61 487.899 1178.41C479.541 1190.01 471.255 1201.7 462.575 1213.08C439.025 1243.97 413.694 1273.63 388.354 1303.24C398.187 1307.9 408.172 1312.16 418.305 1315.98C417.58 1318.2 416.884 1320.43 416.329 1322.73C405.522 1367.6 422.678 1412.62 501.201 1428.82C544.639 1437.78 563.888 1394.38 574.695 1349.51C575.259 1347.17 575.663 1344.83 576.026 1342.51C599.064 1342.02 622.164 1339.73 645.131 1335.65C645.583 1337.9 646.075 1340.14 646.729 1342.36C659.236 1384.91 731.952 1420.67 775.229 1404.64C818.507 1388.61 815.952 1326.87 803.446 1284.32C802.805 1282.14 802.024 1280.05 801.218 1277.98C821.653 1266.04 841.426 1252.43 860.381 1237.24C861.895 1238.85 863.441 1240.45 865.123 1241.94C897.592 1270.78 949.228 1265.65 980.453 1230.49C1011.68 1195.34 1010.67 1143.46 978.198 1114.62C976.516 1113.13 974.752 1111.78 972.974 1110.47C985.816 1089.85 996.993 1068.61 1006.44 1046.91C1008.59 1047.46 1010.76 1047.99 1013 1048.37Z" fill="url(#paint3_linear_8_8)"/>
<path d="M904.208 1257.08C936.677 1285.92 988.312 1280.8 1019.54 1245.64C1050.76 1210.48 1049.75 1158.6 1017.28 1129.77C1015.6 1128.27 1013.84 1126.92 1012.06 1125.61C1024.9 1104.99 1036.08 1083.75 1045.53 1062.05C1047.68 1062.61 1049.84 1063.14 1052.08 1063.51C1095.81 1070.91 1140.02 1040.53 1150.83 995.667C1161.64 950.8 1134.95 908.434 1091.21 901.039C1088.93 900.653 1086.64 900.43 1084.36 900.246C1085.69 876.957 1085.24 853.748 1083.01 830.814C1085.28 830.179 1087.54 829.504 1089.81 828.666C1133.08 812.638 1158.03 765.148 1145.52 722.595C1133.01 680.043 1087.79 658.541 1044.51 674.57C1042.3 675.392 1040.16 676.347 1038.04 677.329C1027.79 657.58 1015.83 638.635 1002.23 620.641C1003.96 618.982 1005.66 617.289 1007.28 615.469C1038.5 580.312 1037.49 528.433 1005.02 499.596C972.555 470.758 920.921 475.883 889.697 511.04C888.08 512.861 886.601 514.754 885.156 516.66C865.683 505.284 845.458 495.646 824.637 487.795C825.362 485.575 826.057 483.343 826.612 481.044C837.418 436.179 810.727 393.813 766.994 386.418C723.263 379.023 679.051 409.4 668.244 454.264C667.68 456.609 667.277 458.94 666.914 461.266C643.877 461.757 620.777 464.049 597.809 468.126C597.357 465.88 596.865 463.637 596.213 461.411C583.707 418.859 538.484 397.357 495.208 413.387C451.931 429.418 426.99 476.906 439.495 519.458C440.137 521.638 440.917 523.725 441.724 525.792C421.289 537.739 401.515 551.345 382.56 566.534C381.046 564.922 379.5 563.33 377.817 561.837C345.348 532.999 293.714 538.124 262.489 573.281C231.264 608.439 232.273 660.318 264.742 689.154C266.425 690.649 268.188 691.995 269.967 693.308C257.125 713.925 245.947 735.166 236.498 756.869C234.35 756.313 232.185 755.784 229.946 755.403C186.214 748.011 142.002 778.385 131.195 823.252C120.388 868.118 147.081 910.483 190.812 917.878C193.096 918.265 195.383 918.488 197.665 918.672C196.329 941.96 196.781 965.17 199.014 988.104C196.748 988.738 194.48 989.413 192.218 990.253C148.943 1006.28 123.999 1053.77 136.506 1096.32C149.012 1138.88 194.234 1160.38 237.509 1144.35C239.728 1143.53 241.862 1142.57 243.98 1141.59C254.236 1161.34 266.194 1180.28 279.79 1198.28C278.069 1199.94 276.363 1201.63 274.746 1203.45C243.522 1238.61 244.531 1290.49 277 1319.32C309.469 1348.16 361.104 1343.04 392.328 1307.88C393.946 1306.06 395.424 1304.17 396.868 1302.26C416.342 1313.64 436.568 1323.27 457.389 1331.12C456.665 1333.35 455.967 1335.58 455.413 1337.88C444.608 1382.74 471.298 1425.11 515.029 1432.5C558.761 1439.9 602.973 1409.52 613.779 1364.66C614.344 1362.31 614.747 1359.98 615.109 1357.65C638.147 1357.16 661.246 1354.87 684.214 1350.79C684.667 1353.04 685.16 1355.28 685.813 1357.51C698.32 1400.06 743.54 1421.56 786.816 1405.53C830.093 1389.5 855.035 1342.01 842.53 1299.46C841.888 1297.28 841.107 1295.19 840.3 1293.13C860.736 1281.18 880.508 1267.57 899.465 1252.39C900.98 1254 902.526 1255.59 904.208 1257.08ZM435.739 1140.59C317.85 1035.89 314.185 847.533 427.555 719.882C540.927 592.232 728.396 573.629 846.285 678.33C964.174 783.032 967.838 971.388 854.469 1099.04C741.099 1226.69 553.628 1245.29 435.739 1140.59Z" fill="url(#paint4_linear_8_8)"/>
<path d="M1671.6 716.542C1694.12 736.547 1729.94 732.992 1751.6 708.603C1773.26 684.214 1772.56 648.225 1750.04 628.221C1748.87 627.184 1747.65 626.25 1746.42 625.339C1755.33 611.037 1763.08 596.301 1769.63 581.246C1771.12 581.632 1772.63 581.999 1774.18 582.262C1804.52 587.391 1835.19 566.32 1842.68 535.195C1850.18 504.07 1831.67 474.68 1801.33 469.55C1799.74 469.283 1798.16 469.128 1796.57 469C1797.5 452.845 1797.19 436.744 1795.64 420.834C1797.21 420.394 1798.78 419.925 1800.35 419.344C1830.37 408.225 1847.67 375.281 1839 345.762C1830.32 316.242 1798.95 301.327 1768.93 312.446C1767.39 313.016 1765.91 313.679 1764.44 314.36C1757.33 300.66 1749.03 287.516 1739.6 275.034C1740.8 273.882 1741.98 272.709 1743.1 271.445C1764.76 247.056 1791.48 221.217 1768.65 201.568C1715.82 156.113 1683.19 174.613 1661.53 199.002C1660.41 200.266 1659.38 201.578 1658.38 202.9C1644.87 195.009 1630.84 188.323 1616.4 182.876C1616.9 181.336 1617.38 179.788 1617.77 178.192C1625.27 147.069 1638.84 132.723 1609.24 124.342C1544.68 106.068 1515.4 128.492 1507.91 159.615C1507.52 161.243 1507.24 162.86 1506.98 164.473C1491 164.813 1474.98 166.403 1459.05 169.231C1458.73 167.673 1458.39 166.116 1457.94 164.573C1449.26 135.054 1417.89 120.139 1387.87 131.259C1357.85 142.379 1340.54 175.322 1349.22 204.841C1349.66 206.354 1350.21 207.801 1350.77 209.235C1336.59 217.523 1322.87 226.962 1309.72 237.498C1308.67 236.38 1307.6 235.275 1306.43 234.239C1283.91 214.235 1248.09 217.789 1226.43 242.178C1204.77 266.567 1205.47 302.556 1227.99 322.56C1229.16 323.597 1230.38 324.531 1231.62 325.442C1222.71 339.744 1214.95 354.479 1208.4 369.535C1206.91 369.149 1205.41 368.782 1203.85 368.518C1173.52 363.389 1142.85 384.461 1135.35 415.586C1127.85 446.711 1146.37 476.099 1176.71 481.229C1178.29 481.497 1179.88 481.653 1181.46 481.78C1180.53 497.936 1180.85 514.036 1182.4 529.946C1180.82 530.386 1179.25 530.855 1177.68 531.436C1147.66 542.555 1130.36 575.499 1139.03 605.018C1147.71 634.538 1195.46 659.713 1225.48 648.594C1227.02 648.024 1212.12 637.101 1213.59 636.42C1220.7 650.121 1229 663.264 1238.43 675.747C1237.24 676.898 1236.05 678.071 1234.93 679.335C1213.27 703.724 1213.97 739.713 1236.5 759.717C1259.02 779.722 1294.84 776.168 1316.5 751.779C1317.62 750.515 1318.65 749.203 1319.65 747.88C1333.16 755.771 1347.19 762.458 1361.63 767.904C1361.13 769.444 1360.65 770.993 1360.26 772.588C1352.77 803.711 1371.28 833.101 1401.62 838.231C1431.96 843.361 1462.63 822.288 1470.13 791.164C1470.52 789.538 1470.8 787.92 1471.05 786.306C1487.03 785.966 1503.06 784.376 1518.99 781.548C1519.3 783.106 1519.64 784.662 1520.1 786.205C1528.77 815.724 1560.14 830.641 1590.17 819.521C1620.19 808.401 1637.49 775.458 1628.81 745.937C1628.37 744.426 1627.83 742.979 1627.27 741.545C1641.44 733.257 1655.16 723.818 1668.31 713.282C1669.36 714.401 1670.43 715.506 1671.6 716.542ZM1346.61 635.729C1264.83 563.096 1262.29 432.43 1340.94 343.878C1419.58 255.325 1549.64 242.42 1631.42 315.052C1713.2 387.684 1715.74 518.35 1637.1 606.902C1558.45 695.456 1428.4 708.361 1346.61 635.729Z" fill="url(#paint5_linear_8_8)"/>
<path d="M1774.18 582.261C1804.52 587.39 1835.19 566.318 1842.69 535.194C1850.18 504.07 1831.67 474.679 1801.33 469.55C1799.74 469.282 1798.16 469.128 1796.57 469C1797.5 452.844 1797.19 436.745 1795.64 420.834C1797.21 420.395 1798.78 419.925 1800.35 419.343C1830.37 408.224 1873.01 373.517 1861.35 345.044C1839.22 291.004 1798.95 301.327 1768.93 312.445C1767.39 313.015 1765.91 313.677 1764.44 314.358C1757.33 300.658 1749.03 287.515 1739.6 275.032C1740.8 273.881 1741.98 272.708 1743.1 271.445C1754.89 258.171 1760 241.469 1758.63 225.771C1722.83 262.464 1687.31 299.426 1652.16 336.735C1712.96 411.617 1708.43 526.581 1637.09 606.903C1576.64 674.969 1485.84 698.28 1409.91 672.469C1404.11 680.515 1398.37 688.627 1392.34 696.522C1376.01 717.95 1358.44 738.524 1340.86 759.064C1347.68 762.298 1354.61 765.252 1361.63 767.904C1361.13 769.445 1360.65 770.993 1360.26 772.588C1352.77 803.712 1364.67 834.946 1419.14 846.183C1449.27 852.399 1462.63 822.29 1470.12 791.165C1470.52 789.539 1470.8 787.922 1471.05 786.308C1487.03 785.968 1503.06 784.377 1518.99 781.55C1519.3 783.108 1519.64 784.664 1520.1 786.206C1528.77 815.726 1579.22 840.528 1609.24 829.408C1639.26 818.288 1637.49 775.459 1628.81 745.94C1628.37 744.428 1627.83 742.981 1627.27 741.546C1641.44 733.258 1655.16 723.819 1668.31 713.284C1669.36 714.402 1670.43 715.507 1671.6 716.542C1694.12 736.548 1729.94 732.992 1751.6 708.603C1773.26 684.215 1772.56 648.225 1750.04 628.221C1748.87 627.184 1747.65 626.25 1746.42 625.339C1755.33 611.037 1763.08 596.3 1769.63 581.246C1771.13 581.631 1772.63 581.997 1774.18 582.261Z" fill="url(#paint6_linear_8_8)"/>
<path d="M1698.71 727.047C1721.24 747.052 1757.06 743.497 1778.72 719.108C1800.38 694.719 1799.68 658.73 1777.15 638.725C1775.99 637.689 1774.76 636.754 1773.53 635.843C1782.44 621.541 1790.19 606.806 1796.75 591.749C1798.24 592.136 1799.74 592.503 1801.29 592.765C1831.63 597.895 1862.3 576.823 1869.8 545.698C1877.29 514.573 1858.78 485.183 1828.44 480.053C1826.85 479.786 1825.27 479.631 1823.68 479.503C1824.61 463.347 1824.3 447.247 1822.75 431.337C1824.32 430.897 1825.9 430.428 1827.46 429.847C1857.48 418.728 1874.79 385.784 1866.11 356.264C1857.43 326.745 1826.06 311.829 1796.04 322.948C1794.5 323.518 1793.02 324.181 1791.55 324.862C1784.44 311.162 1776.14 298.019 1766.71 285.536C1767.91 284.385 1769.09 283.211 1770.21 281.948C1791.87 257.559 1791.17 221.57 1768.65 201.566C1746.12 181.561 1710.31 185.116 1688.64 209.505C1687.52 210.769 1686.5 212.081 1685.5 213.404C1671.99 205.513 1657.96 198.826 1643.51 193.38C1644.01 191.84 1644.5 190.292 1644.88 188.697C1652.38 157.573 1633.86 128.184 1603.52 123.054C1573.19 117.924 1542.52 138.997 1535.02 170.12C1534.63 171.747 1534.35 173.364 1534.1 174.978C1518.12 175.319 1502.09 176.909 1486.16 179.737C1485.85 178.179 1485.5 176.623 1485.05 175.079C1476.38 145.56 1445 130.644 1414.98 141.764C1384.96 152.885 1367.66 185.828 1376.33 215.347C1376.78 216.859 1377.32 218.307 1377.88 219.741C1363.7 228.029 1349.99 237.468 1336.84 248.004C1335.79 246.886 1334.71 245.781 1333.55 244.745C1311.02 224.74 1275.2 228.295 1253.54 252.684C1231.88 277.073 1232.58 313.063 1255.11 333.067C1256.27 334.104 1257.5 335.038 1258.73 335.949C1249.82 350.251 1242.07 364.986 1235.51 380.043C1234.02 379.657 1232.52 379.29 1230.97 379.026C1200.63 373.898 1169.96 394.969 1162.46 426.094C1154.97 457.218 1173.48 486.607 1203.82 491.737C1205.41 492.005 1206.99 492.161 1208.57 492.287C1207.65 508.442 1207.96 524.543 1209.51 540.453C1207.94 540.893 1206.36 541.361 1204.8 541.944C1174.78 553.062 1157.47 586.007 1166.15 615.526C1174.83 645.046 1206.2 659.961 1236.22 648.843C1237.75 648.272 1239.24 647.61 1240.7 646.929C1247.82 660.63 1256.11 673.773 1265.55 686.255C1264.35 687.406 1263.17 688.58 1262.05 689.844C1240.39 714.233 1241.09 750.221 1263.61 770.226C1286.14 790.23 1321.96 786.676 1343.62 762.286C1344.74 761.023 1345.76 759.71 1346.77 758.388C1360.28 766.279 1374.31 772.965 1388.75 778.412C1388.25 779.952 1387.76 781.5 1387.38 783.096C1379.88 814.219 1398.4 843.61 1428.74 848.739C1459.07 853.869 1489.74 832.796 1497.24 801.673C1497.63 800.046 1497.91 798.429 1498.16 796.815C1514.15 796.475 1530.17 794.885 1546.1 792.057C1546.42 793.615 1546.76 795.172 1547.21 796.713C1555.89 826.233 1587.26 841.15 1617.28 830.03C1647.3 818.91 1664.6 785.967 1655.93 756.447C1655.48 754.936 1654.94 753.488 1654.38 752.054C1668.56 743.766 1682.27 734.327 1695.42 723.791C1696.47 724.906 1697.54 726.01 1698.71 727.047ZM1373.73 646.234C1291.95 573.601 1289.4 442.936 1368.05 354.383C1446.7 265.831 1576.75 252.925 1658.53 325.558C1740.31 398.191 1742.85 528.856 1664.21 617.409C1585.56 705.961 1455.51 718.866 1373.73 646.234Z" fill="url(#paint7_linear_8_8)"/>
<path d="M2743.19 2501.22L102.783 2478.4V2545.93C102.783 2564.26 114.299 2579.84 129.897 2582.62L876.526 2715.6C885.387 2717.18 894.372 2717.59 903.314 2716.85L2714.5 2565.23C2730.67 2563.88 2743.19 2548.24 2743.19 2529.41L2743.19 2501.22Z" fill="#BFC8D6"/>
<path d="M1771.52 2393L93.3239 2516.54C63.2939 2518.75 38.877 2495.26 38.877 2464.07V1214.36C38.877 1183.17 63.2939 1157.88 93.3239 1157.88L152.694 1192.1L1771.52 1157.88C1796.26 1157.88 1816.26 1180.74 1816.26 1208.94V2338.65C1816.26 2366.85 1796.26 2391.18 1771.52 2393Z" fill="#BFC8D6"/>
<path d="M1798.28 2393L120.083 2516.54C90.052 2518.75 65.636 2495.26 65.636 2464.07V1214.36C65.636 1183.17 90.052 1157.88 120.083 1157.88H1798.28C1823.02 1157.88 1843.02 1180.74 1843.02 1208.94V2338.65C1843.02 2366.85 1823.02 2391.18 1798.28 2393Z" fill="white"/>
<path d="M1746 2313.35L182.934 2420.66C158.496 2422.34 138.637 2403.06 138.637 2377.6V1283.48C138.637 1258.01 158.496 1237.29 182.934 1237.18L1746 1230.44C1766.41 1230.35 1782.91 1249.08 1782.91 1272.28V2268.82C1782.91 2292.02 1766.41 2311.95 1746 2313.35Z" fill="#D8DEE8"/>
<path d="M737.299 1339.86L315.465 1340.96L315.403 1300.74L737.239 1300.88L737.299 1339.86Z" fill="white"/>
<path d="M935.937 1328.22L838.49 1328.39L838.447 1300.91L935.895 1300.94L935.937 1328.22Z" fill="white"/>
<path d="M935.996 1366.11L838.549 1366.57L838.506 1339.09L935.953 1338.84L935.996 1366.11Z" fill="white"/>
<path d="M1421.62 1363.86L1043.56 1365.61L1043.52 1338.56L1421.57 1337.59L1421.62 1363.86Z" fill="white"/>
<path d="M1483.66 1399.88L1109.37 1402.7L1109.33 1375.79L1483.62 1373.75L1483.66 1399.88Z" fill="white"/>
<path d="M1483.72 1436.19L1109.43 1440.1L1109.39 1413.18L1483.68 1410.06L1483.72 1436.19Z" fill="white"/>
<path d="M1483.78 1472.51L1109.49 1477.49L1109.45 1450.58L1483.74 1446.37L1483.78 1472.51Z" fill="white"/>
<path d="M936.054 1404.01L838.608 1404.74L838.565 1377.27L936.012 1376.73L936.054 1404.01Z" fill="white"/>
<path d="M936.113 1441.91L838.667 1442.92L838.624 1415.44L936.071 1414.63L936.113 1441.91Z" fill="white"/>
<path d="M936.171 1479.8L838.726 1481.1L838.683 1453.62L936.129 1452.53L936.171 1479.8Z" fill="white"/>
<path d="M936.23 1517.7L838.785 1519.28L838.742 1491.8L936.188 1490.42L936.23 1517.7Z" fill="white"/>
<path d="M1197.35 1513.47L957.495 1517.35L957.453 1490.12L1197.31 1486.73L1197.35 1513.47Z" fill="white"/>
<path d="M936.288 1555.59L838.844 1557.46L838.801 1529.98L936.246 1528.32L936.288 1555.59Z" fill="white"/>
<path d="M936.347 1593.49L838.903 1595.63L838.86 1568.16L936.305 1566.22L936.347 1593.49Z" fill="white"/>
<path d="M936.406 1631.39L838.962 1633.81L838.919 1606.33L936.364 1604.11L936.406 1631.39Z" fill="white"/>
<path d="M1309.78 1548.46L1043.85 1553.54L1043.81 1526.49L1309.74 1521.96L1309.78 1548.46Z" fill="white"/>
<path d="M1448 1582.24L1109.66 1589.68L1109.62 1562.76L1447.96 1556.03L1448 1582.24Z" fill="white"/>
<path d="M1448.05 1618.65L1109.72 1627.07L1109.68 1600.16L1448.01 1592.44L1448.05 1618.65Z" fill="white"/>
<path d="M936.464 1669.28L839.021 1671.99L838.978 1644.51L936.422 1642.01L936.464 1669.28Z" fill="white"/>
<path d="M936.523 1707.18L839.08 1710.17L839.037 1682.69L936.481 1679.9L936.523 1707.18Z" fill="white"/>
<path d="M936.581 1745.08L839.139 1748.35L839.096 1720.87L936.539 1717.8L936.581 1745.08Z" fill="white"/>
<path d="M936.64 1782.97L839.198 1786.52L839.155 1759.05L936.598 1755.7L936.64 1782.97Z" fill="white"/>
<path d="M936.698 1820.87L839.257 1824.7L839.214 1797.22L936.656 1793.59L936.698 1820.87Z" fill="white"/>
<path d="M936.757 1858.76L839.316 1862.88L839.273 1835.4L936.715 1831.49L936.757 1858.76Z" fill="white"/>
<path d="M936.816 1896.66L839.375 1901.06L839.332 1873.58L936.773 1869.38L936.816 1896.66Z" fill="white"/>
<path d="M936.874 1934.56L839.434 1939.24L839.391 1911.76L936.832 1907.28L936.874 1934.56Z" fill="white"/>
<path d="M936.933 1972.45L839.493 1977.41L839.45 1949.94L936.891 1945.18L936.933 1972.45Z" fill="white"/>
<path d="M936.991 2010.35L839.552 2015.59L839.509 1988.11L936.949 1983.07L936.991 2010.35Z" fill="white"/>
<path d="M937.05 2048.24L839.611 2053.77L839.568 2026.29L937.008 2020.97L937.05 2048.24Z" fill="white"/>
<path d="M937.108 2086.14L839.67 2091.95L839.627 2064.47L937.066 2058.86L937.108 2086.14Z" fill="white"/>
<path d="M937.167 2124.04L839.729 2130.12L839.686 2102.65L937.125 2096.76L937.167 2124.04Z" fill="white"/>
<path d="M937.226 2161.93L839.788 2168.3L839.745 2140.82L937.183 2134.66L937.226 2161.93Z" fill="white"/>
<path d="M937.284 2199.83L839.847 2206.48L839.804 2179L937.242 2172.55L937.284 2199.83Z" fill="white"/>
<path d="M937.343 2237.73L839.906 2244.66L839.863 2217.18L937.301 2210.45L937.343 2237.73Z" fill="white"/>
<path d="M937.401 2275.62L839.965 2282.84L839.922 2255.36L937.359 2248.35L937.401 2275.62Z" fill="white"/>
<path d="M937.46 2313.52L840.024 2321.01L839.981 2293.53L937.418 2286.24L937.46 2313.52Z" fill="white"/>
<path d="M1222.3 1327.71L956.54 1328.18L956.498 1300.95L1222.26 1301.04L1222.3 1327.71Z" fill="white"/>
<path d="M1422.74 2093.7L1044.73 2117.32L1044.68 2090.26L1422.7 2067.44L1422.74 2093.7Z" fill="white"/>
<path d="M1484.79 2126.14L1110.53 2150.6L1110.49 2123.69L1484.75 2100L1484.79 2126.14Z" fill="white"/>
<path d="M1484.84 2162.45L1110.59 2188L1110.55 2161.08L1484.8 2136.32L1484.84 2162.45Z" fill="white"/>
<path d="M1646.18 2187.29L1281.61 2213.23L1281.57 2186.67L1646.14 2161.49L1646.18 2187.29Z" fill="white"/>
<path d="M1646.23 2223.14L1281.67 2250.13L1281.63 2223.57L1646.19 2197.34L1646.23 2223.14Z" fill="white"/>
<path d="M1646.29 2258.98L1281.72 2287.03L1281.68 2260.47L1646.25 2233.18L1646.29 2258.98Z" fill="white"/>
<path d="M1223.45 2069.08L957.709 2084.91L957.667 2057.68L1223.41 2042.4L1223.45 2069.08Z" fill="white"/>
<path d="M1422.12 1692.29L1044.09 1703.88L1044.04 1676.83L1422.08 1666.02L1422.12 1692.29Z" fill="white"/>
<path d="M1484.17 1726.7L1109.89 1739.26L1109.85 1712.34L1484.13 1700.56L1484.17 1726.7Z" fill="white"/>
<path d="M1484.23 1763.01L1109.95 1776.65L1109.91 1749.74L1484.19 1736.87L1484.23 1763.01Z" fill="white"/>
<path d="M1484.28 1799.32L1110.01 1814.05L1109.97 1787.13L1484.24 1773.19L1484.28 1799.32Z" fill="white"/>
<path d="M1197.87 1847.74L958.021 1857.87L957.979 1830.63L1197.83 1821L1197.87 1847.74Z" fill="white"/>
<path d="M1310.3 1879.81L1044.38 1891.81L1044.33 1864.75L1310.26 1853.31L1310.3 1879.81Z" fill="white"/>
<path d="M1448.5 1909.99L1110.18 1926.23L1110.14 1899.32L1448.46 1883.78L1448.5 1909.99Z" fill="white"/>
<path d="M1448.56 1946.41L1110.24 1963.63L1110.2 1936.72L1448.52 1920.2L1448.56 1946.41Z" fill="white"/>
<path d="M1523.62 1978.79L1189.37 1996.77L1189.33 1970.02L1523.58 1952.73L1523.62 1978.79Z" fill="white"/>
<path d="M1523.67 2014.99L1189.43 2033.94L1189.39 2007.19L1523.63 1988.93L1523.67 2014.99Z" fill="white"/>
<path d="M1222.82 1661.33L957.066 1668.71L957.024 1641.48L1222.78 1634.65L1222.82 1661.33Z" fill="white"/>
<path d="M737.393 1400.77L495.946 1402.51L495.885 1362.82L737.333 1361.79L737.393 1400.77Z" fill="white"/>
<path d="M433.496 1402.96L478.971 1402.63L478.91 1362.89L433.434 1363.08L433.496 1402.96Z" fill="white"/>
<path d="M737.479 1456.81L496.034 1459.56L495.973 1419.87L737.419 1417.83L737.479 1456.81Z" fill="white"/>
<path d="M433.585 1460.27L479.059 1459.76L478.998 1420.02L433.523 1420.4L433.585 1460.27Z" fill="white"/>
<path d="M737.566 1512.85L496.122 1516.62L496.061 1476.93L737.506 1473.87L737.566 1512.85Z" fill="white"/>
<path d="M433.673 1517.59L479.148 1516.88L479.086 1477.14L433.612 1477.72L433.673 1517.59Z" fill="white"/>
<path d="M738.181 1910.63L316.375 1929.82L316.313 1889.6L738.121 1871.64L738.181 1910.63Z" fill="white"/>
<path d="M738.275 1971.54L496.844 1983.63L496.783 1943.94L738.215 1932.55L738.275 1971.54Z" fill="white"/>
<path d="M434.398 1986.76L479.87 1984.48L479.809 1944.74L434.337 1946.88L434.398 1986.76Z" fill="white"/>
<path d="M738.362 2027.58L496.932 2040.69L496.871 2000.99L738.301 1988.59L738.362 2027.58Z" fill="white"/>
<path d="M434.487 2044.07L479.959 2041.61L479.897 2001.87L434.425 2004.2L434.487 2044.07Z" fill="white"/>
<path d="M738.448 2083.62L497.02 2097.74L496.959 2058.05L738.388 2044.63L738.448 2083.62Z" fill="white"/>
<path d="M434.575 2101.39L480.047 2098.73L479.985 2058.99L434.514 2061.52L434.575 2101.39Z" fill="white"/>
<path d="M737.653 1569.27L315.831 1577.64L315.769 1537.42L737.593 1530.29L737.653 1569.27Z" fill="white"/>
<path d="M737.747 1630.18L496.307 1636.08L496.245 1596.39L737.687 1591.2L737.747 1630.18Z" fill="white"/>
<path d="M433.859 1637.6L479.333 1636.49L479.271 1596.75L433.797 1597.73L433.859 1637.6Z" fill="white"/>
<path d="M737.834 1686.22L496.395 1693.13L496.334 1653.44L737.774 1647.24L737.834 1686.22Z" fill="white"/>
<path d="M433.947 1694.92L479.421 1693.62L479.359 1653.88L433.886 1655.05L433.947 1694.92Z" fill="white"/>
<path d="M738.008 1799.02L496.573 1807.99L496.511 1768.29L737.948 1760.04L738.008 1799.02Z" fill="white"/>
<path d="M434.125 1810.3L479.599 1808.61L479.537 1768.87L434.064 1770.43L434.125 1810.3Z" fill="white"/>
<path d="M738.095 1855.06L496.661 1865.04L496.599 1825.35L738.035 1816.08L738.095 1855.06Z" fill="white"/>
<path d="M434.214 1867.62L479.687 1865.74L479.625 1826L434.153 1827.75L434.214 1867.62Z" fill="white"/>
<path d="M737.921 1742.26L496.483 1750.19L496.422 1710.5L737.86 1703.27L737.921 1742.26Z" fill="white"/>
<path d="M434.036 1752.24L479.509 1750.75L479.448 1711.01L433.974 1712.37L434.036 1752.24Z" fill="white"/>
<path d="M738.535 2139.64L316.74 2166.09L316.678 2125.87L738.475 2100.65L738.535 2139.64Z" fill="white"/>
<path d="M738.629 2200.55L497.204 2216.79L497.143 2177.1L738.569 2161.56L738.629 2200.55Z" fill="white"/>
<path d="M434.76 2221L480.231 2217.94L480.17 2178.2L434.699 2181.12L434.76 2221Z" fill="white"/>
<path d="M738.716 2256.58L497.292 2273.85L497.231 2234.16L738.655 2217.6L738.716 2256.58Z" fill="white"/>
<path d="M434.849 2278.31L480.32 2275.06L480.258 2235.32L434.787 2238.44L434.849 2278.31Z" fill="white"/>
<path d="M738.802 2312.62L497.381 2330.9L497.319 2291.21L738.742 2273.64L738.802 2312.62Z" fill="white"/>
<path d="M434.937 2335.63L480.408 2332.19L480.346 2292.45L434.876 2295.76L434.937 2335.63Z" fill="white"/>
<path d="M790.058 2308.94L780.768 2309.64L779.209 1300.89L788.5 1300.9L790.058 2308.94Z" fill="white"/>
<path d="M1018.45 1192.07C1018.45 1203.68 1009.81 1213.12 999.145 1213.15C988.465 1213.19 979.799 1203.78 979.799 1192.14C979.799 1180.5 988.466 1171.06 999.145 1171.05C1009.81 1171.05 1018.45 1180.45 1018.45 1192.07Z" fill="white"/>
<path opacity="0.48" d="M120.077 2516.54L1789.78 2393.62L1798.28 2393C1809.63 2392.16 1819.95 2386.55 1827.83 2378.04C1707.68 2371.47 1633.05 2328.83 1584.91 2284.77C1488.23 2196.29 1505 2109.03 1400.74 2050.86C1270.71 1978.3 1168.46 2070.24 1069.79 1979.53C1009.96 1924.53 1039.33 1883.52 965.721 1801.33C884.191 1710.3 831.11 1740.9 749.173 1658.98C645.571 1555.39 697.386 1474.79 608.145 1400.42C499.883 1310.19 383.127 1393.7 280.069 1307.17C235.619 1269.85 211.229 1215.59 198.494 1157.88H120.084C90.053 1157.88 65.636 1183.17 65.636 1214.36V2464.07C65.636 2495.26 90.048 2518.75 120.077 2516.54Z" fill="white"/>
<path d="M1877.35 2386.15L102.783 2516.18L876.526 2653.99C885.387 2655.57 894.372 2655.99 903.314 2655.24L2743.19 2501.22L1905.57 2387.03C1896.21 2385.75 1886.76 2385.46 1877.35 2386.15Z" fill="url(#paint8_linear_8_8)"/>
<path d="M361.719 2517.3L1839.1 2407.43L2296.33 2469.26L831.681 2586.71L361.719 2517.3Z" fill="#D8DEE8"/>
<path d="M1032.42 1830C1045.91 1840.26 1065.16 1837.63 1075.41 1824.14L1078.76 1819.74C1089.02 1806.25 1086.39 1787 1072.9 1776.75L579.07 1401.33C565.58 1391.08 546.331 1393.7 536.076 1407.19L532.729 1411.59C522.474 1425.08 525.096 1444.33 538.586 1454.58L1032.42 1830Z" fill="url(#paint9_linear_8_8)"/>
<path d="M971.538 1902.71C985.028 1912.97 1004.28 1910.35 1014.53 1896.86L1131.62 1742.83C1141.88 1729.34 1139.25 1710.1 1125.76 1699.84L1103.61 1683C1090.12 1672.74 1070.87 1675.37 1060.62 1688.86L943.527 1842.88C933.272 1856.37 935.894 1875.62 949.384 1885.87L971.538 1902.71Z" fill="url(#paint10_linear_8_8)"/>
<path d="M978.077 1951.7L1458.45 2316.88C1469.87 2325.56 1483.44 2329.55 1496.78 2329.29C1514.89 2328.95 1532.75 2320.54 1544.56 2305.01L1666.8 2144.2C1687.3 2117.23 1682.06 2078.72 1655.09 2058.22L1174.71 1693.03C1155.01 1678.06 1129.07 1676.78 1108.6 1687.74C1101.03 1691.75 1094.14 1697.4 1088.61 1704.66L966.369 1865.46C945.866 1892.44 951.107 1931.2 978.077 1951.7Z" fill="url(#paint11_linear_8_8)"/>
<g opacity="0.5">
<path d="M1558.46 2128.81C1568.26 2136.26 1582.25 2134.36 1589.7 2124.55C1597.16 2114.75 1595.25 2100.76 1585.45 2093.31L1187.31 1790.64C1177.5 1783.19 1163.52 1785.09 1156.06 1794.9C1148.61 1804.7 1150.52 1818.69 1160.32 1826.14L1558.46 2128.81Z" fill="url(#paint12_linear_8_8)"/>
<path d="M1473.63 2240.39C1483.44 2247.85 1497.43 2245.94 1504.88 2236.14C1512.33 2226.33 1510.43 2212.34 1500.62 2204.89L1102.48 1902.22C1092.68 1894.77 1078.69 1896.68 1071.24 1906.48C1063.79 1916.28 1065.69 1930.27 1075.5 1937.73L1473.63 2240.39Z" fill="url(#paint13_linear_8_8)"/>
</g>
<path d="M455.591 1444.78L361.973 1337.91C357.795 1333.14 357.605 1326.14 361.44 1321.09L376.308 1301.53L388.687 1285.25L403.759 1265.42C407.595 1260.38 414.398 1258.69 420.11 1261.44L548.158 1323.07C552.137 1324.99 555.388 1328.12 557.461 1332.02L574.534 1364.7C580.207 1375.38 578.665 1388.01 571.348 1397.63L558.593 1414.41L546.214 1430.7L533.663 1447.21C526.346 1456.83 514.583 1461.69 502.778 1459.08L466.47 1451.18C462.156 1450.23 458.502 1448.11 455.591 1444.78Z" fill="url(#paint14_linear_8_8)"/>
<path opacity="0.3" d="M1496.83 2329.21C1514.94 2328.88 1532.75 2320.54 1544.56 2305.01L1666.8 2144.21C1687.3 2117.24 1682.05 2078.72 1655.08 2058.22L1174.71 1693.04C1155.01 1678.06 1129.13 1676.82 1108.66 1687.78C1145.5 1706.58 1200.43 1732.3 1219.2 1771.82C1237.11 1809.53 1289.09 1876.34 1363.6 1900.86C1438.1 1925.38 1577.24 2010.63 1591.64 2088.87C1606.05 2167.08 1615.36 2227.67 1496.83 2329.21Z" fill="url(#paint15_linear_8_8)"/>
<path d="M1346.83 1483.39L1147.23 1430.45L1093.27 1231.12L1303.02 1042.67C1315.7 1029.92 1293.01 1000.05 1275.04 999.32C1187.41 995.755 1098.61 1028.45 1033.06 1097.38C915.031 1221.5 917.99 1418.5 1039.54 1539.17C1163.25 1662 1363.1 1661.41 1486.09 1537.8C1551.09 1472.47 1592.66 1395.32 1588.76 1309.98C1587.94 1291.99 1555.13 1274.04 1542.43 1286.8L1346.83 1483.39Z" fill="url(#paint16_linear_8_8)"/>
<path d="M1039.66 1426.02L312.229 2106.52C265.553 2151.25 264.855 2225.64 310.684 2271.24C356.5 2316.82 430.856 2315.76 475.356 2268.89L1152.64 1538.43L1039.66 1426.02Z" fill="url(#paint17_linear_8_8)"/>
<path d="M1358.34 1496.26L1158.73 1443.31L1104.78 1243.98L1300.38 1047.39C1313.06 1034.64 1304.51 1012.92 1286.54 1012.18C1198.92 1008.62 1110.12 1041.32 1044.57 1110.25C926.54 1234.37 929.499 1431.36 1051.05 1552.04C1174.75 1674.86 1374.61 1674.27 1497.59 1550.66C1562.59 1485.33 1593.1 1398.71 1589.21 1313.38C1588.39 1295.38 1566.64 1286.9 1553.94 1299.67L1358.34 1496.26Z" fill="url(#paint18_linear_8_8)"/>
<path d="M1051.17 1438.89L323.736 2119.39C277.06 2164.12 276.362 2238.5 322.191 2284.1C368.007 2329.69 442.363 2328.63 486.863 2281.76L1164.15 1551.3L1051.17 1438.89Z" fill="url(#paint19_linear_8_8)"/>
<path opacity="0.4" d="M1087.01 1515.4C1105.31 1533.6 1105.38 1563.19 1087.18 1581.49C1068.98 1599.79 1039.39 1599.86 1021.09 1581.66C1002.79 1563.45 1002.72 1533.86 1020.92 1515.57C1039.13 1497.27 1068.72 1497.2 1087.01 1515.4Z" fill="url(#paint20_linear_8_8)"/>
<path opacity="0.4" d="M1027.22 1614.68L438.579 2206.31C427.811 2217.14 410.308 2217.18 399.485 2206.41C388.662 2195.65 388.618 2178.14 399.386 2167.32L988.031 1575.69L1027.22 1614.68Z" fill="url(#paint21_linear_8_8)"/>
<defs>
<linearGradient id="paint0_linear_8_8" x1="2311.47" y1="929.846" x2="1278.39" y2="1880.24" gradientUnits="userSpaceOnUse">
<stop stop-color="#AA80F9"/>
<stop offset="0.9964" stop-color="#6165D7"/>
</linearGradient>
<linearGradient id="paint1_linear_8_8" x1="2778.11" y1="1824.57" x2="1782.43" y2="1852.36" gradientUnits="userSpaceOnUse">
<stop offset="0.0036" stop-color="#E38DDD"/>
<stop offset="1" stop-color="#9571F6"/>
</linearGradient>
<linearGradient id="paint2_linear_8_8" x1="103.138" y1="765.972" x2="1099.53" y2="1027.2" gradientUnits="userSpaceOnUse">
<stop stop-color="#AB316D"/>
<stop offset="1" stop-color="#792D3D"/>
</linearGradient>
<linearGradient id="paint3_linear_8_8" x1="490.198" y1="914.78" x2="1087.92" y2="1071.49" gradientUnits="userSpaceOnUse">
<stop stop-color="#AB316D"/>
<stop offset="1" stop-color="#792D3D"/>
</linearGradient>
<linearGradient id="paint4_linear_8_8" x1="1061.23" y1="475.583" x2="-770.496" y2="2366.83" gradientUnits="userSpaceOnUse">
<stop stop-color="#FF9085"/>
<stop offset="1" stop-color="#FB6FBB"/>
</linearGradient>
<linearGradient id="paint5_linear_8_8" x1="1143" y1="386.356" x2="1834.21" y2="567.573" gradientUnits="userSpaceOnUse">
<stop stop-color="#AB316D"/>
<stop offset="1" stop-color="#792D3D"/>
</linearGradient>
<linearGradient id="paint6_linear_8_8" x1="1411.51" y1="489.586" x2="1826.15" y2="598.295" gradientUnits="userSpaceOnUse">
<stop stop-color="#AB316D"/>
<stop offset="1" stop-color="#792D3D"/>
</linearGradient>
<linearGradient id="paint7_linear_8_8" x1="1807.64" y1="184.91" x2="536.948" y2="1496.89" gradientUnits="userSpaceOnUse">
<stop stop-color="#FF9085"/>
<stop offset="1" stop-color="#FB6FBB"/>
</linearGradient>
<linearGradient id="paint8_linear_8_8" x1="102.783" y1="2520.69" x2="2743.19" y2="2520.69" gradientUnits="userSpaceOnUse">
<stop offset="0.494" stop-color="#EBEFF2"/>
<stop offset="1" stop-color="white"/>
</linearGradient>
<linearGradient id="paint9_linear_8_8" x1="1060.48" y1="1841.14" x2="551.006" y2="1390.19" gradientUnits="userSpaceOnUse">
<stop stop-color="#40447E"/>
<stop offset="0.9964" stop-color="#3C3B6B"/>
</linearGradient>
<linearGradient id="paint10_linear_8_8" x1="841.124" y1="1643.51" x2="1054.82" y2="1805.96" gradientUnits="userSpaceOnUse">
<stop offset="0.0036" stop-color="#E38DDD"/>
<stop offset="1" stop-color="#9571F6"/>
</linearGradient>
<linearGradient id="paint11_linear_8_8" x1="1414.84" y1="1875.58" x2="1218.2" y2="2134.25" gradientUnits="userSpaceOnUse">
<stop offset="0.0036" stop-color="#E38DDD"/>
<stop offset="1" stop-color="#9571F6"/>
</linearGradient>
<linearGradient id="paint12_linear_8_8" x1="1664.36" y1="2217.72" x2="1072.91" y2="1694.22" gradientUnits="userSpaceOnUse">
<stop offset="0.0036" stop-color="#E38DDD"/>
<stop offset="1" stop-color="#9571F6"/>
</linearGradient>
<linearGradient id="paint13_linear_8_8" x1="1571.7" y1="2322.36" x2="980.246" y2="1798.85" gradientUnits="userSpaceOnUse">
<stop offset="0.0036" stop-color="#E38DDD"/>
<stop offset="1" stop-color="#9571F6"/>
</linearGradient>
<linearGradient id="paint14_linear_8_8" x1="551.377" y1="1427.34" x2="388.221" y2="1282.92" gradientUnits="userSpaceOnUse">
<stop stop-color="#40447E"/>
<stop offset="0.9964" stop-color="#3C3B6B"/>
</linearGradient>
<linearGradient id="paint15_linear_8_8" x1="1613.77" y1="2227.07" x2="1062.9" y2="1739.48" gradientUnits="userSpaceOnUse">
<stop offset="0.0036" stop-color="#E38DDD"/>
<stop offset="1" stop-color="#9571F6"/>
</linearGradient>
<linearGradient id="paint16_linear_8_8" x1="1151.15" y1="1158.17" x2="1832.54" y2="2304.34" gradientUnits="userSpaceOnUse">
<stop stop-color="#40447E"/>
<stop offset="0.9964" stop-color="#3C3B6B"/>
</linearGradient>
<linearGradient id="paint17_linear_8_8" x1="511.65" y1="1538.32" x2="1193.23" y2="2684.81" gradientUnits="userSpaceOnUse">
<stop stop-color="#40447E"/>
<stop offset="0.9964" stop-color="#3C3B6B"/>
</linearGradient>
<linearGradient id="paint18_linear_8_8" x1="8520.42" y1="7389.71" x2="7790.07" y2="6782.76" gradientUnits="userSpaceOnUse">
<stop offset="0.0036" stop-color="#F36F56"/>
<stop offset="1" stop-color="#FFC444"/>
</linearGradient>
<linearGradient id="paint19_linear_8_8" x1="8036.04" y1="7969.5" x2="7305.85" y2="7362.67" gradientUnits="userSpaceOnUse">
<stop offset="0.0036" stop-color="#F36F56"/>
<stop offset="1" stop-color="#FFC444"/>
</linearGradient>
<linearGradient id="paint20_linear_8_8" x1="1222.24" y1="1732.64" x2="1054.23" y2="1548.72" gradientUnits="userSpaceOnUse">
<stop offset="0.0036" stop-color="#F36F56"/>
<stop offset="1" stop-color="#FFC444"/>
</linearGradient>
<linearGradient id="paint21_linear_8_8" x1="874.649" y1="2087.14" x2="703.778" y2="1900.09" gradientUnits="userSpaceOnUse">
<stop offset="0.0036" stop-color="#F36F56"/>
<stop offset="1" stop-color="#FFC444"/>
</linearGradient>
</defs>
</svg>
